<?xml version="1.0"?><svg version="1.2" baseProfile="tiny-ps" viewBox="0 0 300 300" xmlns="http://www.w3.org/2000/svg" xmlns:xlink="http://www.w3.org/1999/xlink"><title>NM</title><g><g fill="#e2d3c7" transform="matrix(.1 0 0 -.1 0 300)"><path d="M0 1500V0h3000v3000H0V1500z"/></g><g fill="#a9724f" transform="matrix(.1 0 0 -.1 0 300)"><path d="M0 1500V0l531 2 532 3 46 160 46 160 20-3 20-2-17 10-17 11 6 29 5 30-12 15-12 15h8c5 0 25-5 44-11l35-11 91 1 91 1-4-27c-3-16-7-35-10-43s-6-24-7-35c-2-23-60-112-139-215l-50-65 24 20c13 10 50 44 83 75l58 55-5-45c-3-25-9-64-13-87l-7-43h1653v3000H0V1500zm1796 279 5-9-25-25-25-25h-51c-28 0-72 5-97 12l-46 11 22 19c30 23 46 23 71-2 26-26 36-25 68 8l27 27 23-4c12-2 25-7 28-12zm-696-1c0-18 31-48 51-48h18l20 21 19 21 22-12 22-12-15-15-14-15-61-5-61-6-28 12c-16 6-34 21-41 32l-12 19 22 10c13 5 31 9 41 9l17 1v-12zm-69-1429-10-24v17c-1 9 2 24 6 34l7 18 3-10c2-6-1-22-6-35zm287-36c12-2 32-2 45 0l22 4h-90l23-4z"/></g><g fill="#57361e" transform="matrix(.1 0 0 -.1 0 300)"><path d="M0 1500V0h1029l4 18c3 9 22 90 43 179l37 163 16-12 16-12-12 14-13 14v86h9c6 0 12-4 15-9 3-4 32-14 65-21l60-13 80 5 80 5-8-16c-5-9-14-58-21-109s-17-95-21-98l-8-5 5-14c5-12-2-62-22-152l-4-23h1650v3000H0V1500zm1782 765c25-4 51-11 59-16l14-8 1-86 2-86 46-47 47-47 7-25c4-14 6-77 6-140l-2-115-17-55c-9-30-17-65-17-77 0-13-3-21-7-19l-7 5 3-37 3-37-9 20-8 20-8-52-7-53h-9c-5 0-9-9-9-19v-19l-15-6-15-5v-56l-8 12-8 13-13-38c-7-20-25-54-39-75l-25-38-14 5-13 5v-9c0-6-4-10-9-10h-8l-7 46-6 46-20 26c-12 14-26 27-33 28-7 2-39 10-72 20-59 16-83 22-97 23-16 2-7 23 18 46l27 25-19 7c-25 9-85 9-106-1l-16-8-22 22-22 22 6 31c3 18 9 85 12 149l7 117-14 17c-8 9-18 31-24 48l-10 31-110 37-110 38h-96l-39-20c-22-11-40-22-40-23s18-1 39 1l39 4 32-23 31-24-32-8-33-9 14-8 14-9-17-7-18-6 18-20 17-19 8 20 7 21h57l17-34 16-34 21-7 21-7 20 18c10 9 19 23 19 31 0 16 1 16 34 3l26-10v-38l-37-32-36-32 24 7c13 4 43 18 67 30 23 13 42 21 42 17s-14-54-30-111c-17-57-30-114-30-128v-23l40-43 39-43-45-22c-24-12-52-22-62-22-22-1-46-19-62-49l-12-24v-44c1-23-1-43-5-43-7 0-43 41-43 49 0 3-16 24-35 46s-35 44-35 50-9 26-19 46c-27 51-77 217-97 324l-17 90-1 96-1 95 28 37 27 36v68l92 31c51 17 111 34 133 37 22 4 76 18 120 32l80 25 65 3c77 3 216 24 245 35 11 5 25 7 31 5s32-6 56-10zm387-360 15-30 4-76 4-76-11-19-12-19 7 53 6 52-12 50-12 50h-12c-14 0-70-57-111-112l-27-38 6-42 6-43-21-30-21-30 6 35c4 19 9 77 13 128l6 93 46 45 46 44 30-2 30-3 14-30zm-1315-20 26-24v-18c0-10 3-36 6-58l6-40-37 53-38 52h-13c-8 0-14-1-14-3s-4-28-10-58l-10-54 9-30 8-30 8 63 8 62h12c6 0 19-8 29-19l17-18-15-13-15-12-7-34-6-33 11-32 11-31-15 6c-8 3-15 3-15 1 0-3 28-18 63-34l63-29 10-51 11-51h-11c-6 0-21 3-33 6l-23 6-41 72c-42 72-47 84-48 121l-1 20-8-13-9-13-11 39c-15 49-15 90-1 150 20 78 38 89 83 47zm203-51c-3-3-12-4-19-1l-13 5 19 1c11 1 17-2 13-5zm1079-39 14-34v-40c0-22-5-52-10-68l-10-28 15 19c8 11 15 24 15 30 0 5 3 7 6 3 8-8-60-135-97-180l-30-37h-82l7 42 7 42 16 18c9 10 22 18 30 18s27 7 43 15l30 15 15 30c8 16 15 41 15 55 0 31-24 81-42 88l-13 6 24 20c13 12 25 21 28 21 2 0 11-16 19-35zm-946-5c0-5-4-10-9-10-6 0-13 5-16 10l-6 10h15c9 0 16-4 16-10zm-273-152-5-13-1 19c-1 11 2 17 5 13 3-3 4-12 1-19zm534-359-24-10-58 3-57 3 4 7c2 4 39 6 82 6h77l-24-9zm66-5c-3-3-12-4-19-1l-13 5 19 1c11 1 17-2 13-5zm-227-8c0-2-7-7-16-10l-15-6 6 10c6 10 25 14 25 6zm352-44c5-5 11-27 14-49l4-39-47-56-48-56-27 3-28 2v-11l-1-11-14 19-15 20v-15l-1-14-13 24-13 24-9-14-9-14-32-1-33-1v16l-1 16-14-25-14-25-1 15-1 15-10-17c-12-22-29-23-29-4v15l-20-4-20-4v40l-9-6-10-5-6 19c-3 11-12 22-20 25l-15 5v99l13 9c6 5 28 10 46 12 19 1 36 3 38 5 2 1 78 2 170 0l166-3 9-9zm278-142v-86l-52-50c-29-28-61-56-71-63l-17-13 25 68c14 38 42 111 62 162l37 92 8-12 8-13v-85zm-880-701c4-13 4-32 2-41l-4-18-11 7-10 6 6-17 7-17-12 7-11 7 6-17 7-17-9 6-9 5-4-12-4-12-8 12-7 12h18l-7 45-7 46 10 6 10 6-8-14-9-14 17 14 17 13-7 10-6 11 14-5 13-4 6-25zm-63-66-5-18v70l5-17c2-10 2-26 0-35zm728 1631c-33-8-100-28-150-45l-90-31-11-15-12-14-5 13-5 13-1-23-1-23 22-8 21-8-11-7c-7-4-12-15-12-24v-18l67-33 67-33-13 15c-6 9-14 26-16 40l-5 24 18 15c9 9 27 19 39 22l22 7 7-26 6-25 24-6c33-9 52 1 66 33 7 15 13 30 14 31 2 2 16 1 33-3l31-7v-31l19 19 18 19-36 18-36 17 35-5 35-5-20 12-20 12-50-1-50-1 55 29 55 28 37 1c20 0 49-5 65-10l28-10-20 15c-23 18-109 45-139 44-12 0-48-7-81-15zm9-145-5-9-10 6-9 5 6 10 5 9 10-6 9-5-6-10zm65-56-14-18 18 14c9 7 17 15 17 17 0 8-8 3-21-13zm-939-172c0-9 30-24 36-18 2 1-6 8-16 15l-20 12v-9zm1222-1c-12-12-22-24-22-27 0-4 11 4 25 17 23 22 29 30 22 30-2 0-13-9-25-20zm-748-417 5-12-14-11c-22-18-12-25 51-39l56-13 64 12 65 12-17 19-17 19 11 12 10 13h-218l4-12zM1249 73l-14-18 18 14c9 7 17 15 17 17 0 8-8 3-21-13z"/></g><g fill="#2a2927" transform="matrix(.1 0 0 -.1 0 300)"><path d="M0 1500V0h1029l11 58c6 31 21 93 32 137s28 123 38 175l19 95-30 30-29 31v34l53-26c28-14 59-31 67-38 9-6 6-2-6 9s-41 31-63 45l-41 24v42c0 58 20 195 31 214l8 15 2-30c0-16 5-41 9-55l9-25-5 50c-3 28-14 112-25 188-11 75-19 143-17 149l4 12 50-74c27-41 57-91 65-110 22-47 121-189 153-219l25-24 28 18c15 10 67 52 115 93l88 74 69 82c145 171 212 275 242 375 7 23 14 40 15 38 2-2 5-79 7-171l3-168-26-36c-38-53-122-131-169-158-23-12-41-21-41-20 0 2 7 20 15 39 24 57 16 58-9 1l-23-50-89-55-89-56-8-79c-4-43-8-86-9-95l-2-17-12 5-11 4-13-16c-7-8-21-15-31-15s-21-4-24-10l-6-10h11c6 0 27 7 47 15 44 19 40 19 45-10l5-24-47-16-47-16-1-12c-1-23-33-219-51-318l-18-99h1647v3000H0V1500zm1745 780-6-10h23c13 0 40-5 61-11l37-10v-171l53-60 52-60-1-137v-136l-22-101c-12-56-29-114-37-130s-15-39-15-51v-23l-20-20c-11-11-20-22-20-25 0-13-46-104-68-133l-25-33-13 5-13 5-7-10-6-10-12 10-12 10-2 36-3 37-16 24-15 24-87 26c-47 14-99 32-115 40l-29 15-8-12-7-12-35 7-34 6-54-25c-30-14-60-25-68-25-7 0-24-12-37-27l-24-28v-118l-60 63-60 63v16c0 9-6 25-14 36-14 21-86 247-86 272 0 7-7 16-15 19s-17 15-20 25l-7 20 11 13 12 14-12 72-11 73 4 73 3 73 28 29 28 29-2 34c-2 19-2 60-1 91l2 58 25 16 25 16 45 6 44 5 38-18 38-18 45-2 45-2 75 18 74 18 7-11 7-12 40 12c22 7 48 12 58 11h19l-20-10-20-9 30 5c17 3 50 10 75 16 25 5 60 12 79 14s36 7 39 10 9 5 14 5h9l-6-10zm397-341 20-11 13-32c7-17 17-59 20-92l7-61-29-69c-16-38-50-102-75-141l-46-71-31-7-31-6-20 6-21 7 6 17c9 29 45 294 45 335v39l47 43c40 37 56 49 71 53 2 1 12-4 24-10zm-1290-49 25-19 6-43c4-24 10-54 13-68l7-25-13 12-13 12-21-27-21-27v-87l29-25 29-25 18 5 19 5 9-36c5-21 12-51 16-68l6-32-33 7-33 7-27 39c-14 22-44 73-65 114l-38 75 1 85v86l12 28 12 27h18c11 0 31-9 44-20zm688-619 55-20h-18l-18-1 6-10 6-10h77l6-22c8-30 8-123 0-115-3 3-26-15-50-39l-43-45-23-2c-13 0-26-6-30-11l-7-11-10 25-10 25v-17c-1-10-5-18-11-18-5 0-14 8-19 18l-10 17-1-19v-20l-15 20-14 19-1-13v-13l-11 7-11 7-9-14-9-14v30l-1 30-14-25-14-25-1 14v15l-16-20-15-19-5 13c-3 6-11 12-17 12s-28 18-49 41l-37 40-6 44-7 43 11 21 12 21h60l-6 10-6 9-17-6-17-5 22 16c13 9 38 22 58 29l35 12 72-2 73-2 55-20zm-499-882 11-22-11-37c-6-21-18-43-26-50l-15-12-15 12-15 12v69l16 24c20 31 40 32 55 4zm639 1545c-56-14-153-47-203-67l-28-12 5-20 5-20-14 19-15 20v-11c0-19 24-31 67-36l42-4 12 11 12 11-6-17-6-17 22 6c12 2 32 7 45 10l22 5v-19c0-24 19-43 42-43h18v21l10-6 11-7 10 31 11 31h25c13 0 33-5 43-10l19-10 5 9 6 9-32 11-31 11h-116l-5 9-6 9 50 21c27 12 71 27 97 34l48 13 3 12 2 12-57-1c-32 0-83-7-113-15zm34-135-5-9-10 6-9 5 6 10 5 9 10-6 9-5-6-10zm-751 127c-18-8-33-18-33-21s4-3 10 0l10 6 57-15c32-8 78-24 103-35l45-21-65 5-65 4 40-8 40-8-30-2c-16-2-46-9-65-16l-35-13 17-1c9-1 19-7 21-13l5-13 1 18 1 17h71l6-17c3-10 13-26 21-35l15-18h47l12 26 12 25 20-5 21-5-25 19c-35 27-21 33 24 11l37-19-12 14c-13 16-9 17 24 5l24-9-4 21-5 22-22 17c-13 9-58 28-102 43l-79 26-55 5-55 4-32-14zm227-136c0-5-7-10-15-10s-15 5-15 10c0 6 7 10 15 10s15-4 15-10zm680 140c8-5 20-10 25-10h10l-15 10c-8 5-19 10-25 10h-10l15-10zm-167-77c15-2 37-2 50 0l22 4h-100l28-4zm-782-209 1-19 5 13c3 7 2 16-1 19-3 4-6-2-5-13zm384-217c11-8 31-17 45-20l25-6-25 19c-14 11-34 20-45 20h-19l19-13zm110-7-6-10h33c18 0 40 5 48 10l15 10h-84l-6-10zm695 442c0-5 3-12 8-16 4-4 12-22 19-39l11-32-3 40c-2 22-3 43-4 48-1 10-31 9-31-1zm-85-108-16-25 10-31 11-30-25-42c-14-24-25-47-25-53v-10l50 24 50 24 15 23 16 23v34c1 19-4 46-10 62l-11 27h-48l-17-26zm-1218 72-6-15 19 2 19 1-11 13c-13 16-15 16-21-1zm-21-51c-3-9-5-33-5-53l1-37 9 50c8 51 6 68-5 40zm545-630c8-8 32-18 54-23l40-9 30 10c17 6 38 16 49 23l19 13h-206l14-14zm425-190c-9-26-7-32 5-12 6 10 9 21 6 23-2 3-7-2-11-11zm-545-185c0-3 8-32 18-66 11-33 25-99 32-145l13-84 4 19 4 19 9-14 10-14-7 30c-20 91-80 275-83 255zm131-45c9-11 21-36 26-55l10-35 1 27 1 28-27 28c-16 15-20 19-11 7zm-195-65 6-75 9-10 10-10-6 56c-4 32-11 70-16 85l-9 29 6-75zm181-247c12-2 32-2 45 0l22 4h-90l23-4z"/></g><g fill="#08332d" transform="matrix(.1 0 0 -.1 0 300)"><path d="M1 1618 2 235l9 54 9 53 39 84 40 84 16 6c27 11 29-3 7-53l-20-48-11-78-11-78V0h15l1 168 1 167 17 65c9 35 24 78 34 94l17 29 60 20c33 11 134 46 225 79l165 60 86 18 87 18 31-7 31-6-24-35c-26-39-60-129-51-138 3-3 5-1 5 4 0 8 70 133 85 152 1 1 9 0 18-3l15-6 12-82 12-82 26-67 26-68 12 13 12 12-14 74c-8 41-13 76-11 78s21-4 42-13l38-16-15 24-16 25 5 121 6 121 9-6 10-5-12 21c-6 12-10 30-8 39l4 17 16-31c9-17 23-36 31-42l14-12 12 38 13 38-17 106c-9 59-15 117-13 130l3 23 37-50c21-27 56-84 78-125 38-70 76-127 136-208l25-32h38l88 74c48 40 113 100 144 132 79 82 205 247 236 308 26 53 23 53-16 1-22-29-202-224-251-272-14-13-38-31-54-40l-29-15-58-5c-31-3-83-2-115 2l-58 7-30 32c-38 38-76 88-76 97 0 4-27 44-61 89-77 105-111 172-144 290-30 105-41 127-30 61l7-43-21 6c-12 3-29 8-39 11l-17 5-53 92-53 93-14 52-14 53 10 62c5 33 14 69 20 80l10 18h20c11 0 31-7 44-16l25-16 1-27c1-14 5-37 9-51l8-25v182l12 24c7 13 14 36 14 52l1 28 14 8c7 5 12 11 11 15-1 3 1 35 5 70l6 64 17 15c9 8 35 20 58 27l41 12 49-21 49-22 80 5c44 3 96 10 115 16 19 5 43 10 53 10h18l-7-12-7-11 19 7c10 5 37 10 59 13l40 5-15-12-15-12 18 6c44 14 150 36 155 32 2-3 17 1 33 9 35 19 40 19 33 0l-6-15h26c15 0 42-6 61-14l34-14-6-21-5-21 16-6 16-6-6-9-5-9 18-1h18l-20-9-20-9h15c8-1 26-4 40-7l25-6-15 11-15 11h20l-15 10-15 10h17c9 0 28-5 42-11l25-12-6-10-6-10 10 6 10 6 36-25 37-25v-30c0-34-35-143-56-176-22-34-8-28 36 17l39 40h41l19-19 19-19 11-51c6-29 11-70 11-92v-40l-22-52c-32-75-87-168-120-201l-29-28-44 5-45 5v-33c0-17 3-35 7-38 4-4 8-82 10-173l3-166-29-41c-16-23-41-53-56-67s-31-35-36-48c-5-12-14-22-20-22h-11l13 17 14 18-17-14c-10-7-15-17-13-22l5-8-45-31c-26-18-45-34-42-36 2-2 30 10 61 27l58 32-5-19c-3-11-15-53-27-94-25-86-85-207-109-219-9-5-54-21-100-37-46-15-80-29-74-31s61 14 123 37c62 22 116 40 118 40 15 0-40-46-114-95l-83-56-28-44-28-44-15-1h-15l14-9 13-9-9-3c-10-4-66-170-59-176 2-2 14 11 27 29 28 40 129 148 139 148 4 0 107 100 229 223l223 222-7-30c-16-69-32-175-26-175 10 1 64 82 103 154l36 70 11-41c6-23 20-60 30-83l19-42 6 75 7 74-11 44c-7 24-21 61-31 81-11 21-17 38-14 38 2 0 27-14 54-30 27-17 89-48 138-69 48-22 142-65 208-96 101-48 400-175 411-175 2 0 4 560 4 1245v1245H0l1-1382zm1344 1277c44-7 89-16 100-20 11-3 0 5-25 20l-45 26 20-5c11-3 56-12 100-21 83-17 193-52 209-67 6-4 14-8 20-8h9l-19 22c-10 11-39 34-64 50l-45 30 25-7c97-28 209-97 243-150l19-30-6 18c-3 10-6 24-6 31s-11 30-25 50c-36 53-16 44 44-19l52-55 14-35c8-19 15-50 15-69s4-37 9-40l8-6 7 48 6 48-6 32c-9 43 1 40 26-8l20-39v-80l-24-28-25-28-11 25-10 25 5-28 6-29-10 6-9 6-4-12c-2-6-10 14-17 45l-12 55-14 12-14 11 10-36c6-20 8-42 5-48l-4-12-1 20c-1 11-6 27-12 35l-10 15 2-30c0-16 1-43 0-58l-1-28-10 6c-5 3-11 18-11 33l-2 27-4-22c-6-32-18-29-43 12-28 45-33 45-14 0 7-19 14-47 14-62l-1-28-18 35c-11 19-28 43-40 54l-20 19 19-56c11-31 20-67 20-79v-23l-25 53c-25 55-38 67-31 30 3-13 7-39 10-58l6-35-26 52c-13 28-32 57-41 65l-17 13 7-17c4-10 10-26 13-35l7-18-48 45-49 45 32-38c18-21 32-43 32-49v-12l-37 35c-38 36-37 32 9-40l28-45v-57l-32 37c-35 39-113 94-135 94h-13l30-47c17-26 30-51 30-55 0-8-86 34-145 72-16 10-43 22-60 25l-30 7 53-27 53-27 24-36c14-20 25-40 25-44s-35 10-77 32c-43 22-94 42-113 45l-35 6 28-25c15-15 26-26 22-26-3 0-42 18-88 41-45 23-77 37-72 32 6-6 39-34 75-63 36-30 56-50 45-46-11 5-38 15-59 23-22 8-49 19-60 25l-21 11 16-19c9-10 19-25 24-32l7-13-38 19-39 20-41 45-42 46-43 11c-24 6-59 20-76 30-36 21-39 19-22-11l10-20-19 12c-11 7-27 25-36 40l-16 27v70l14 11 14 12 4-12 4-11 44-3c25-1 34 0 21 2l-23 5 82 28c87 30 113 44 63 34l-30-6-42 21c-22 12-41 23-41 25s24 4 54 4h55l88 42 88 42 70 8c39 4 62 8 52 9-24 1-77 32-77 44v9l18-7c9-3 53-13 97-20zm378-119c20-15 37-30 37-34s14-23 31-42l31-35-22 40c-22 41-64 80-96 91l-19 6 38-26zm-285-3c7-3 16-2 19 1 4 3-2 6-13 5l-19-1 13-5zm81-32-16-6 73-36 73-36-9 17c-5 9-30 28-57 42l-48 26-16-7zm-94-33c17-7 59-27 94-45l63-33-15 23c-8 12-28 30-44 39l-30 18-49 5-49 5 30-12zm456-28c14-31 19-36 19-24 0 6-7 19-16 30l-15 19 12-25zm-631-34c25-7 68-23 95-36 70-33 73-34 45-10l-25 21 35-6 35-7-23 24-23 23-92 2-92 2 45-13zm435-36c10-11 20-20 23-20s-3 9-13 20-20 20-23 20 3-9 13-20zm-575-20 23-20h23c12 0 35-5 50-11l28-10-19 21-18 20 44-15 44-15-20 15c-26 21-81 35-134 35h-44l23-20zm-182-13c8-9 32-23 55-32l42-15 45 8 45 8-70 8-70 8-30 16-30 15 13-16zm967-447c3-5 10-10 16-10 5 0 9 5 9 10 0 6-7 10-16 10h-15l6-10zm-240-205c-88-26-186-62-197-73l-7-7 8-14 9-14 39-2 38-2 14 11 15 11-8-13-8-13 23 13c13 7 26 16 29 19 8 10 78 39 155 64l70 23-20 2-20 2 25 8 25 8h-55l-55 1-80-24zm-106-59c-2-2-15-9-29-15l-25-12 19 15c16 13 49 24 35 12zm-573 62-29-11 113-37 114-37 4-11 4-12h-52v-10c0-5-4-10-10-10-20 0-9 19 18 29l27 10-60-6c-33-3-76-12-95-20l-35-13 40 5c22 4 48 8 57 11l17 5 15-34c8-19 20-38 27-42l14-8-12 14c-7 7-13 17-13 21v8l40-6 40-7v34l13-6c6-4 3 1-7 9l-20 16 7 7 7 7 36-17 35-17-6 10-6 10h11c6 0 19-4 29-10l18-9-4 23-5 23-30 18c-39 23-213 75-247 74-14 0-39-5-55-11zm298-87 6-9-15-5-14-6 6 15c6 16 10 17 17 5zm-84-52c0-5-7-9-15-9-15 0-20 12-9 23 8 8 24-1 24-14zm782 91v-35l5 18c2 9 2 25 0 35l-5 17v-35zm145-17c-3-5 1-17 9-28l14-19v21c0 23-15 39-23 26zm-484-33c-24-10-31-22-11-17l11 2 8-25 7-25 2 15c1 8 2 21 1 28-1 6 3 12 9 12 5 0 9-5 8-11-2-6 3-14 10-16l12-5v32h32l-5-15-6-14 9-6 9-5 3 22 3 23 10-1c6-1 30-4 55-8l45-6-29 13-29 13-66 2-66 1-22-9zm-828-10-6-10 15 6c18 7 21 14 7 14-6 0-13-4-16-10zm1168-45v-40l4 23c2 12 2 30 0 40l-5 17 1-40zm70-2c-19-7-16-23 5-23 9 0 23-4 31-9l14-9 7-38 8-39 1 37 1 37-12 26-11 25-16-1c-9 0-22-3-28-6zm-1143-23c-3-29 0-63 6-69 10-10 11 7 4 49l-7 45-3-25zm-33-13c-18-13-37-59-36-85l1-17 10 35 9 35 22 17c12 9 19 19 16 22s-13 0-22-7zm1095-57v-35l5 18c2 9 2 25 0 35l-5 17v-35zm-1046-70c7-8 14-24 17-35l5-20 1 21 1 22-17 13-18 14 11-15zm389-180c11-5 24-9 28-9l8-1-6 10c-3 6-16 10-28 9h-22l20-9zm133-7c7-3 16-2 19 1 4 3-2 6-13 5l-19-1 13-5zm-55-61c-24-2-44-6-45-10 0-4-2-19-3-33l-2-27 33 9 32 9 42-9 41-9-9 11c-5 7-17 23-28 37l-19 25-42-3zm-86-36-6-15 14 6 15 5-6 9c-7 12-11 11-17-5zm283-65 15-11h-39l12-12 11-11 15 12 14 12 5-13 4-13 8 8 9 7-10 9c-5 5-20 12-34 16l-25 6 15-10zm-352-28c6-2 18-2 25 0l12 5h-50l13-5zm92-80c0-1 13-9 30-18l29-15h33l33 1 40 18 40 18-102-1c-57-1-103-2-103-3zm392-327c-69-43-80-57-17-21 64 36 92 55 80 54-6 0-34-15-63-33zm-631-82 1-19 5 13c3 7 2 16-1 19-3 4-6-2-5-13zm-9-84v-35l5 18c2 9 2 25 0 35l-5 17v-35zm451-10v-45l4 23c2 12 2 32 0 45l-4 22v-45zm-370-5v-40l4 23c2 12 2 30 0 40l-5 17 1-40zm218 19 1-19 5 13c3 7 2 16-1 19-3 4-6-2-5-13zm-114-54c3-25 12-56 19-70l14-25-7 30c-3 17-12 48-19 70l-13 40 6-45zm-187-39c0-5 7-12 16-15l17-6-13 15c-14 17-20 19-20 6zm350-81-15-10 10 1c6 0 19 4 30 9l20 9h-15c-8 0-22-4-30-9zm101-6 1-19 5 13c3 7 2 16-1 19-3 4-6-2-5-13zm-33-41c7-3 16-2 19 1 4 3-2 6-13 5l-19-1 13-5zm-48-13c-8-5-12-11-10-14 3-2 14 2 24 10 22 15 10 19-14 4zm1515-20c-40-25-99-103-141-187-46-93-43-105 5-16 21 40 53 92 72 117l34 45 38 21c20 12 37 25 37 31 0 14-12 11-45-11zM958 338l-7-16 19-74 18-73 1 43 1 42h14c17 0 46 38 46 60l-1 15-14-33-15-33-22 3-23 3-5 40-5 40-7-17zm444-78v-35l5 18c2 9 2 25 0 35l-5 17v-35zm238 18c0-4 4-8 9-8 6 0 12 4 15 8l5 9h-14c-8 0-15-4-15-9zm-248-78v-25l5 13c2 6 2 18 0 25l-5 12v-25zM171 123c-12-49-24-96-27-105l-5-18h39l5 28c9 47 20 182 15 182-3 0-15-39-27-87zm2797-5c-14-29-28-67-32-83l-7-31 36-2 35-3v86c0 47-1 85-3 85s-14-24-29-52zm-1586 22v-25l5 13c2 6 2 18 0 25l-5 12v-25zm1385-22c-38-95-47-121-39-113 12 13 53 117 48 122-2 2-6-2-9-9zM1372 80V55l5 13c2 6 2 18 0 25l-5 12V80zm1048-38V0h28l-10 38c-14 51-18 52-18 4zM1362 30V5l5 13c2 6 2 18 0 25l-5 12V30z"/></g><g fill="#0e100d" transform="matrix(.1 0 0 -.1 0 300)"><path d="M1220 2919v-10l10 6c6 3 10 8 10 11 0 2-4 4-10 4-5 0-10-5-10-11zm365 1c3-5 11-10 16-10h10l-6 10c-3 6-11 10-16 10h-10l6-10zm-213-11 11-7-19-5-19-6 25 1c14 1 38-4 54-11 16-6 31-10 33-8 2 3-11 10-28 17l-32 14 19 7 19 7-37-1-38-1 12-7zm253 2-6-10 23-11 23-11-17 14-18 14 7 6c3 4 4 7 0 7-3 0-8-4-12-9zm-337-8c6-2 18-2 25 0l12 5h-50l13-5zm170 0c7-3 16-2 19 1 4 3-2 6-13 5l-19-1 13-5zm-210-15 13-16-23-5-23-4 55-1h55l-28 8c-16 5-36 15-45 22l-17 13 13-17zm250 5c6-2 18-2 25 0l12 5h-50l13-5zm57-10c35-7 139-46 153-56 27-21 20 1-10 29-17 16-28 23-24 16l8-13-29 7c-15 4-38 11-51 15-13 5-33 8-45 8l-22-1 20-5zm190-15c58-31 106-69 128-103l19-30-6 18c-3 10-6 24-6 30 0 7-10 28-22 47s-22 39-23 44c0 5-6 11-14 14l-14 5 8-14c5-8 17-26 27-41 27-40 22-43-19-10-39 30-96 62-110 62-4-1 10-10 32-22zm153-51 53-57 14-35c8-19 15-50 15-69s4-37 9-40l8-6 7 48 6 48-6 32c-9 43 1 40 26-8l20-39v-80l-24-28-25-28-11 25-10 25 5-28 6-29-10 6-9 6-4-12c-2-6-10 14-17 45l-12 55-14 12-14 11 10-36c6-20 8-42 5-48l-4-12-1 20c-1 11-6 27-12 35l-10 15 2-30c0-16 1-43 0-58l-1-28-10 6c-5 3-11 18-11 33l-2 27-4-22c-6-32-18-29-43 12-28 45-33 45-14 0 7-19 14-47 14-62l-1-28-18 35c-11 19-28 43-40 54l-20 19 19-56c11-31 20-67 20-79v-23l-25 53c-36 77-39 71-19-38l4-25-25 52c-14 28-33 57-42 65l-17 13 7-17c4-10 10-26 13-35l7-18-48 45-49 45 32-38c18-21 32-43 32-49v-12l-37 35c-38 36-37 32 9-40l28-45v-57l-32 37c-35 39-113 94-135 94h-13l30-47c17-26 30-51 30-55 0-8-86 34-145 72-16 10-43 22-60 25l-30 7 53-27 53-27 24-36c14-20 25-40 25-44s-35 10-77 32c-43 22-94 42-113 45l-35 6 28-25c15-15 26-26 22-26-3 0-42 18-88 41-45 23-77 37-72 32 6-6 39-34 75-63 36-30 56-50 45-46-11 5-38 15-59 23-22 8-49 19-60 25l-21 11 16-19c9-10 19-25 24-32l7-13-38 19-39 20-41 45-42 46-43 11c-24 6-59 20-76 30-36 21-39 19-22-11l10-20-19 12c-11 7-27 25-36 40l-16 27v70l14 11 14 12 4-12 4-11 49-4 50-3-45 10-45 10-13 17-12 16v-25l-10 6-9 6-13-61c-11-56-28-81-28-42v17l-10-15c-13-19-13-85 0-130l9-35-16 20-15 20 6-35c3-19 20-57 36-83 17-27 30-57 30-69 0-11 6-34 14-51 8-18 21-82 30-143s23-137 31-170c7-32 18-77 23-99l10-40v182l12 24c7 13 14 36 14 52l1 28 14 8c7 5 12 11 11 15-1 3 1 35 5 70l6 64 17 15c9 8 35 20 58 27l41 12 49-21 49-22 80 5c44 3 96 10 115 16 19 5 43 10 53 10h18l-7-12-7-11 19 7c10 5 37 10 59 13l40 5-15-12-15-12 18 6c44 14 150 36 155 32 2-3 17 1 33 9 35 19 40 19 33 0l-6-15h26c15 0 42-6 61-14l34-14-6-21-5-21 16-6 16-6-6-9-5-9 18-1h18l-20-9-20-9h15c8-1 26-4 40-7l25-6-15 11-15 11h20l-15 10-15 10h17c9 0 28-5 42-11l25-12-6-10-6-10 10 6 10 6 36-25 37-25v-30c0-34-35-143-56-176-22-34-8-28 34 15l37 38 2 85c3 101 21 229 35 246l10 13-6 37c-4 21-9 52-12 68l-5 30 15-25 15-25 1 26v27l-23 22-24 23 14 28 14 29-3 37-3 38-17-37c-18-40-29-50-21-19l5 19-16 62c-9 35-28 85-43 112l-27 49-19 10-19 11 10-19c5-10 13-38 17-63l7-45-39 64-38 63-40 31-40 31 53-57zm-710 36c7-3 16-2 19 1 4 3-2 6-13 5l-19-1 13-5zm-73-25c-22-12-62-29-90-39l-50-18h20c20 0 189 77 170 78-5 0-28-9-50-21zm608-52c20-15 37-30 37-34s14-23 31-42l31-35-22 40c-22 41-64 80-96 91l-19 6 38-26zm-833-16c6-11 20-26 30-33 27-16 25-23-12-36l-31-11 6-6 7-7 75 28c78 28 95 38 46 29l-28-6-43 22-43 22 14 9 14 9h-46l11-20zm548 13c7-3 16-2 19 1 4 3-2 6-13 5l-19-1 13-5zm81-32-16-6 73-36 73-36-9 17c-5 9-30 28-57 42l-48 26-16-7zm-94-33c17-7 59-27 94-45l63-33-15 23c-8 12-28 30-44 39l-30 18-49 5-49 5 30-12zm456-28c14-31 19-36 19-24 0 6-7 19-16 30l-15 19 12-25zm-631-34c25-7 68-23 95-36 70-33 73-34 45-10l-25 21 35-6 35-7-23 24-23 23-92 2-92 2 45-13zm435-36c10-11 20-20 23-20s-3 9-13 20-20 20-23 20 3-9 13-20zm-575-20 23-20h23c12 0 35-5 50-11l28-10-19 21-18 20 44-15 44-15-20 15c-26 21-81 35-134 35h-44l23-20zm-182-13c8-9 32-23 55-32l42-15 45 8 45 8-70 8-70 8-30 16-30 15 13-16zm967-447c3-5 10-10 16-10 5 0 9 5 9 10 0 6-7 10-16 10h-15l6-10zm-240-205c-88-26-186-62-197-73l-7-7 8-14 9-14 39-2 38-2 14 11 15 11-8-13-8-13 23 13c13 7 26 16 29 19 8 10 78 39 155 64l70 23-20 2-20 2 25 8 25 8h-55l-55 1-80-24zm-106-59c-2-2-15-9-29-15l-25-12 19 15c16 13 49 24 35 12zm-573 62-29-11 113-37 114-37 4-11 4-12h-52v-10c0-5-4-10-10-10-20 0-9 19 18 29l27 10-60-6c-33-3-76-12-95-20l-35-13 40 5c22 4 48 8 57 11l17 5 15-34c8-19 20-38 27-42l14-8-12 14c-7 7-13 17-13 21v8l40-6 40-7v34l13-6c6-4 3 1-7 9l-20 16 7 7 7 7 36-17 35-17-6 10-6 10h11c6 0 19-4 29-10l18-9-4 23-5 23-30 18c-39 23-213 75-247 74-14 0-39-5-55-11zm298-87 6-9-15-5-14-6 6 15c6 16 10 17 17 5zm-84-52c0-5-7-9-15-9-15 0-20 12-9 23 8 8 24-1 24-14zm-382 124c7-3 16-2 19 1 4 3-2 6-13 5l-19-1 13-5zm1164-33v-35l5 18c2 9 2 25 0 35l-5 17v-35zm145-17c-3-5 1-17 9-28l14-19v21c0 23-15 39-23 26zm-484-33c-24-10-31-22-11-17l11 2 8-25 7-25 2 15c1 8 2 21 1 28-1 6 3 12 9 12 5 0 9-5 8-11-2-6 3-14 10-16l12-5v32h32l-5-15-6-14 9-6 9-5 3 22 3 23 10-1c6-1 30-4 55-8l45-6-29 13-29 13-66 2-66 1-22-9zm-828-10-6-10 15 6c18 7 21 14 7 14-6 0-13-4-16-10zm1168-45v-40l4 23c2 12 2 30 0 40l-5 17 1-40zm70-2c-19-7-16-23 5-23 9 0 23-4 31-9l14-9 7-38 8-39 1 37 1 37-12 26-11 25-16-1c-9 0-22-3-28-6zm-1143-23c-3-29 0-63 6-69 10-10 11 7 4 49l-7 45-3-25zm-33-13c-18-13-37-59-36-85l1-17 10 35 9 35 22 17c12 9 19 19 16 22s-13 0-22-7zm1095-57v-35l5 18c2 9 2 25 0 35l-5 17v-35zm-1046-70c7-8 14-24 17-35l5-20 1 21 1 22-17 13-18 14 11-15zm39-130c12-71 52-190 86-250l31-55 5-52 6-51-31-16c-17-9-38-26-46-37l-15-22-12-73-12-73-16-15c-30-26-226-104-501-199-151-53-290-98-307-102l-32-6-27-32c-15-18-38-56-52-85L8 359l-4-62-3-62 9 54 10 53 39 84 40 84 16 6c27 11 29-3 7-53l-20-48-11-78-11-78V0h15l1 168 1 167 17 65c9 35 24 78 34 94l17 29 60 20c33 11 134 46 225 79l165 60 86 18 87 18 31-7 31-6-24-35c-26-39-60-129-51-138 3-3 5-1 5 4 0 8 70 133 85 152 1 1 9 0 18-3l15-6 12-82 12-82 26-67 26-68 12 13 12 12-14 74c-8 41-13 76-11 78s21-4 42-13l38-16-15 24-16 25 5 121 6 121 9-6 10-5-12 21c-6 12-10 30-8 39l4 17 16-31c9-17 23-36 31-42l14-12 12 38 13 38-17 106c-9 59-15 117-13 130l3 23 37-50c21-27 56-84 78-125 38-70 76-127 136-207l25-33h38l88 74c48 40 113 100 144 132 79 82 205 247 236 308 26 53 23 53-16 1-22-29-202-224-251-272-14-13-38-31-54-40l-29-15-58-5c-31-3-83-2-115 2l-58 7-30 32c-38 38-76 88-76 97 0 4-27 44-61 89-77 105-111 172-144 290-31 106-41 127-30 60zm985-51 1-34 14-19 14-18 3 38 3 38 25 7 25 7-27 1c-14 1-33 4-42 7l-16 6v-33zm-1022 14c7-3 16-2 19 1 4 3-2 6-13 5l-19-1 13-5zm387-13c11-5 24-9 28-9l8-1-6 10c-3 6-16 10-28 9h-22l20-9zm133-7c7-3 16-2 19 1 4 3-2 6-13 5l-19-1 13-5zm-55-61c-24-2-44-6-45-10 0-4-2-19-3-33l-2-27 33 9 32 9 42-9 41-9-9 11c-5 7-17 23-28 37l-19 25-42-3zm-86-36-6-15 14 6 15 5-6 9c-7 12-11 11-17-5zm656-61v-60l4 33c2 18 2 45 0 60l-4 27v-60zm-373-4 15-11h-39l12-12 11-11 15 12 14 12 5-13 4-13 8 8 9 7-10 9c-5 5-20 12-34 16l-25 6 15-10zm-352-28c6-2 18-2 25 0l12 5h-50l13-5zm732-108v-76l-29-42c-16-23-41-53-56-67s-31-35-36-47c-5-13-14-23-20-23h-11l13 18 14 17-17-14c-10-7-15-17-13-22l5-8-45-31c-26-18-45-34-42-36 2-2 30 10 61 27l58 32-5-19c-3-11-15-53-27-94-25-86-85-207-109-219-9-5-54-21-100-37-46-15-80-29-74-31s61 14 123 37c62 22 116 40 118 40 15 0-40-46-114-95l-83-56-28-44-28-44-15-1h-15l14-9 13-9-9-3c-10-4-66-170-59-176 2-2 14 11 27 29 28 40 129 148 139 148 4 0 107 100 229 223l223 222-7-30c-16-69-32-175-26-175 10 1 64 82 103 154l36 70 11-41c6-23 20-60 30-83l19-42 6 75 7 74-11 44c-7 24-21 61-31 81-11 21-17 38-14 38 2 0 27-14 54-30 27-17 89-48 138-69 48-22 142-65 208-96 134-64 406-177 412-172 2 2-61 30-139 63-178 73-567 256-673 317l-79 46-41 113-40 112-32 19-33 19v-77zm-640 28c0-1 13-9 30-18l29-15h33l33 1 40 18 40 18-102-1c-57-1-103-2-103-3zm392-327c-69-43-80-57-17-21 64 36 92 55 80 54-6 0-34-15-63-33zm-631-82 1-19 5 13c3 7 2 16-1 19-3 4-6-2-5-13zm-9-84v-35l5 18c2 9 2 25 0 35l-5 17v-35zm451-10v-45l4 23c2 12 2 32 0 45l-4 22v-45zm-370-5v-40l4 23c2 12 2 30 0 40l-5 17 1-40zm218 19 1-19 5 13c3 7 2 16-1 19-3 4-6-2-5-13zm-114-54c3-25 12-56 19-70l14-25-7 30c-3 17-12 48-19 70l-13 40 6-45zm-187-39c0-5 7-12 16-15l17-6-13 15c-14 17-20 19-20 6zm350-81-15-10 10 1c6 0 19 4 30 9l20 9h-15c-8 0-22-4-30-9zm101-6 1-19 5 13c3 7 2 16-1 19-3 4-6-2-5-13zm-33-41c7-3 16-2 19 1 4 3-2 6-13 5l-19-1 13-5zm-48-13c-8-5-12-11-10-14 3-2 14 2 24 10 22 15 10 19-14 4zm1515-20c-40-25-99-103-141-187-46-93-43-105 5-16 21 40 53 92 72 117l34 45 38 21c20 12 37 25 37 31 0 14-12 11-45-11zM958 338l-7-16 19-74 18-73 1 43 1 42h14c17 0 46 38 46 60l-1 15-14-33-15-33-22 3-23 3-5 40-5 40-7-17zm444-78v-35l5 18c2 9 2 25 0 35l-5 17v-35zm238 18c0-4 4-8 9-8 6 0 12 4 15 8l5 9h-14c-8 0-15-4-15-9zm-248-78v-25l5 13c2 6 2 18 0 25l-5 12v-25zM171 123c-12-49-24-96-27-105l-5-18h39l5 28c9 47 20 182 15 182-3 0-15-39-27-87zm2797-5c-14-29-28-67-32-83l-7-31 36-2 35-3v86c0 47-1 85-3 85s-14-24-29-52zm-1586 22v-25l5 13c2 6 2 18 0 25l-5 12v-25zm1385-22c-38-95-47-121-39-113 12 13 53 117 48 122-2 2-6-2-9-9zM1372 80V55l5 13c2 6 2 18 0 25l-5 12V80zm1048-38V0h28l-10 38c-14 51-18 52-18 4zM1362 30V5l5 13c2 6 2 18 0 25l-5 12V30z"/></g></g></svg>